<svg width="160" height="32" viewBox="0 0 160 32" fill="none" xmlns="http://www.w3.org/2000/svg">
<path d="M25.039 3.97217C25.0425 1.77739 23.2505 0 21.0315 0C18.816 0 17.0135 1.76348 17.01 3.94087C17.0065 6.13217 18.7985 7.90957 21.014 7.91304C23.2295 7.91304 25.032 6.14957 25.0355 3.97217H25.039ZM19.3165 12.2783C19.6665 12.2296 20.027 12.2017 20.391 12.2017C24.5945 12.2017 28 15.5583 28 19.6974C28 23.8365 24.5945 27.193 20.391 27.193C19.0155 27.193 17.724 26.8313 16.611 26.2017C13.552 24.4765 9.653 25.8887 8.4525 29.1513C7.854 30.8104 6.244 32 4.354 32C1.953 32 0.0035 30.08 0.0035 27.7148C0.0035 25.3496 1.953 23.4296 4.354 23.4296C4.781 23.4296 5.194 23.4922 5.5825 23.6035C8.967 24.5843 12.4355 22.3165 12.8275 18.8626C12.8275 18.8591 12.8275 18.8522 12.8275 18.8522C13.23 15.3635 10.339 12.3652 6.7795 12.5774C6.65 12.5843 6.5205 12.5913 6.3875 12.5913C2.8595 12.5878 0 9.77044 0 6.29565C0 2.82087 2.8595 0 6.391 0C9.9225 0 12.782 2.81739 12.782 6.29565C12.782 6.36522 12.782 6.43478 12.775 6.50435C12.6595 10.0104 15.785 12.7722 19.313 12.2783H19.3165Z" fill="url(#paint0_linear_4350_1490)"/>
<path d="M146.39 10.4355H143.229C143.121 10.4355 143.057 10.5188 143.057 10.6229V21.214C143.057 21.2973 143.121 21.3806 143.229 21.3806H146.39C146.476 21.3806 146.562 21.2973 146.562 21.214V10.6229C146.562 10.5188 146.476 10.4355 146.39 10.4355Z" fill="white"/>
<path d="M146.39 7H143.229C143.121 7 143.057 7.08329 143.057 7.16657V9.40139C143.057 9.50549 143.121 9.58878 143.229 9.58878H146.39C146.476 9.58878 146.562 9.50549 146.562 9.40139V7.16657C146.562 7.08329 146.476 7 146.39 7Z" fill="white"/>
<path fill-rule="evenodd" clip-rule="evenodd" d="M68.1946 10.4356H71.3561C71.4636 10.4356 71.5281 10.5188 71.5281 10.623V21.1932C71.5281 21.2973 71.4636 21.3806 71.3561 21.3806H68.1946C68.1085 21.3806 68.0225 21.2973 68.0225 21.1932V21.0475C68.0225 20.9642 67.9365 20.9226 67.872 20.9642C66.9759 21.4604 65.9507 21.7103 64.9004 21.7103C61.5884 21.7103 58.918 19.1458 58.918 16.0018C58.918 12.8578 61.5884 10.2725 64.9004 10.2725C65.9471 10.2725 66.9723 10.5223 67.872 11.0186C67.9365 11.0602 68.0225 11.0186 68.0225 10.9561V10.6264C68.0225 10.5223 68.1085 10.439 68.1946 10.439V10.4356ZM62.7032 15.9983C62.7032 17.4454 63.9434 18.6253 65.4381 18.6253C66.9328 18.6253 68.0225 17.4454 68.0225 15.9983C68.0225 14.5512 66.9543 13.3714 65.4381 13.3714C63.9219 13.3714 62.7032 14.5512 62.7032 15.9983Z" fill="white"/>
<path d="M44.7881 15.1101C44.6591 15.058 44.5336 15.0129 44.4046 14.9643C44.2755 14.9192 44.1501 14.8706 44.021 14.8186C43.806 14.7353 43.616 14.652 43.3794 14.5687C42.2467 14.1349 42.0317 13.8226 41.9707 13.6179C41.9492 13.493 41.9922 13.3299 42.0998 13.2049C42.2718 13.0384 42.5048 12.9759 42.7629 12.9967C43.1679 13.0384 43.3615 13.2466 43.4475 13.4513C43.4905 13.5346 43.5551 13.5762 43.6411 13.5762L46.6951 12.9759C46.8026 12.9551 46.8671 12.851 46.8456 12.7677C46.6735 12.0216 46.1825 11.5462 46.014 11.4039C45.7774 11.2165 45.5229 11.0326 45.2218 10.8868C44.6447 10.5988 43.9601 10.3906 43.193 10.3073C41.9313 10.1615 40.7162 10.4114 39.795 10.9909C39.4759 11.1783 39.1963 11.4039 38.9634 11.6746C38.7913 11.862 38.0027 12.8753 38.2357 14.0725C38.3863 14.8984 39.0279 15.6237 40.096 16.224C40.1032 16.231 40.1104 16.2344 40.1176 16.2414C40.1211 16.2414 40.1247 16.2448 40.1283 16.2483L40.1391 16.2552C40.1391 16.2552 40.1498 16.2587 40.1534 16.2622C40.1642 16.2657 40.1713 16.2691 40.1785 16.2691L40.2 16.2899C40.4151 16.3941 40.6265 16.4982 40.8631 16.5988C41.0137 16.6647 41.1571 16.7341 41.2897 16.7966C41.4474 16.8695 41.5908 16.9354 41.7162 16.9909L41.7377 17.0118C42.9349 17.5496 43.1679 17.737 43.211 18.1083C43.2325 18.2749 43.1894 18.438 43.0604 18.5421C42.9314 18.667 42.6984 18.792 42.2252 18.7295C42.0102 18.7087 41.6481 18.5629 41.4331 18.2541C41.39 18.1916 41.304 18.15 41.2395 18.1708L38.1425 18.8128C38.035 18.8336 37.9705 18.9585 38.0135 19.0627C38.354 19.8087 38.8451 20.4056 39.5082 20.8429C40.1283 21.1725 40.8954 21.4016 41.7736 21.5057C42.0532 21.5473 42.3292 21.5473 42.5837 21.5473C44.53 21.5473 46.0893 20.7214 46.7703 19.3333C46.9424 18.9204 47.0463 18.5074 47.0678 18.1118C47.1754 16.3941 45.5086 15.4432 44.7809 15.1135L44.7881 15.1101Z" fill="white"/>
<path d="M56.8179 11.4069C56.7319 11.3237 56.6459 11.2612 56.5599 11.1987C56.5383 11.1779 54.0615 9.29705 51.5165 10.9905C51.452 11.0322 51.366 10.9905 51.366 10.9072V10.6192C51.366 10.5151 51.2799 10.4318 51.1939 10.4318H48.0324C47.9249 10.4318 47.8604 10.5151 47.8604 10.6192V21.2103C47.8604 21.2936 47.9249 21.3769 48.0324 21.3769H51.409C51.495 21.3769 51.581 21.2936 51.581 21.2103V15.2103C51.581 14.7973 51.581 14.2803 51.7746 13.9055C51.9251 13.555 52.4377 13.3468 53.0793 13.3468C53.4199 13.3468 53.6994 13.4301 53.9109 13.5758C54.04 13.6799 54.1475 13.8049 54.2299 13.968C54.402 14.3393 54.4235 14.8147 54.4235 15.2103V21.2103C54.4235 21.2936 54.5095 21.3769 54.6171 21.3769H57.9721C58.0797 21.3769 58.1657 21.2936 58.1657 21.2103V15.0472C58.1657 13.4336 57.9721 12.5244 56.8215 11.4069H56.8179Z" fill="white"/>
<path fill-rule="evenodd" clip-rule="evenodd" d="M79.4861 10.269C78.4394 10.269 77.4143 10.5362 76.4931 11.036C76.45 11.0568 76.364 11.0151 76.364 10.9527V10.623C76.364 10.5189 76.278 10.4356 76.192 10.4356H73.0305C72.9229 10.4356 72.8584 10.5189 72.8584 10.623V24.8127C72.8584 24.9168 72.9229 25.0001 73.0305 25.0001H76.192C76.278 25.0001 76.364 24.9168 76.364 24.8127V21.0475C76.364 20.9851 76.45 20.9434 76.4931 20.9642C77.4107 21.4605 78.4358 21.7312 79.4861 21.7312C82.7766 21.7312 85.4686 19.1459 85.4686 16.0018C85.4686 12.8578 82.7766 10.2725 79.4861 10.2725V10.269ZM78.9305 18.6253C77.4143 18.6253 76.3676 17.4454 76.3676 15.9984C76.3676 14.5513 77.4143 13.3714 78.9305 13.3714C80.4467 13.3714 81.6869 14.5513 81.6869 15.9984C81.6869 17.4454 80.4467 18.6253 78.9305 18.6253Z" fill="white"/>
<path d="M101.749 11.3379C101.774 11.3587 101.803 11.383 101.828 11.4108C102.982 12.5282 103.172 13.4374 103.172 15.051V21.2141C103.172 21.2974 103.086 21.3807 102.978 21.3807H99.6232C99.5157 21.3807 99.4296 21.2974 99.4296 21.2141V15.2141C99.4296 14.822 99.4081 14.3466 99.2361 13.9718C99.15 13.8052 99.0425 13.6838 98.9171 13.5797C98.702 13.4339 98.426 13.3506 98.0855 13.3506C97.4438 13.3506 96.9313 13.5589 96.7592 13.9093C96.5872 14.2807 96.5872 14.7977 96.5872 15.2141V21.2141C96.5872 21.2974 96.5011 21.3807 96.3936 21.3807H93.1246C93.017 21.3807 92.9525 21.2974 92.9525 21.2141L92.931 15.2141C92.931 14.822 92.9095 14.3466 92.7374 13.9718C92.6514 13.8052 92.5439 13.6838 92.4184 13.5797C92.2034 13.4339 91.9274 13.3506 91.5832 13.3506C90.9416 13.3506 90.429 13.5589 90.2785 13.9093C90.0849 14.2807 90.0849 14.7977 90.0849 15.2141V21.2141C90.0849 21.2974 89.9989 21.3807 89.9129 21.3807H86.5363C86.4288 21.3807 86.3643 21.2974 86.3643 21.2141V10.6231C86.3643 10.5189 86.4288 10.4357 86.5363 10.4357H89.6978C89.7838 10.4357 89.8699 10.5189 89.8699 10.6231V10.9111C89.8699 10.9944 89.9559 11.036 90.0204 10.9944C92.5618 9.29743 95.0423 11.1818 95.0638 11.2026C95.1175 11.2407 95.1677 11.2789 95.2215 11.324C95.2537 11.3518 95.286 11.3796 95.3183 11.4108C95.3684 11.4594 95.4186 11.508 95.4688 11.5669C95.4831 11.5843 95.4975 11.6017 95.5118 11.619C95.5763 11.7023 95.7054 11.6815 95.7914 11.5982C95.985 11.3691 96.218 11.1644 96.476 10.977C96.8166 10.748 97.2037 10.5641 97.5657 10.4808C99.6805 9.77632 101.541 11.1852 101.562 11.206C101.62 11.2477 101.681 11.2928 101.738 11.3414L101.749 11.3379Z" fill="white"/>
<path d="M114.577 10.4355H111.222C111.115 10.4355 111.029 10.5188 111.029 10.6229V16.6021C111.029 17.0151 111.029 17.5321 110.857 17.9069C110.685 18.2574 110.193 18.4864 109.53 18.4864C109.19 18.4864 108.91 18.4032 108.695 18.2366C108.566 18.1325 108.462 18.0076 108.376 17.8445C108.204 17.4731 108.183 17.0185 108.183 16.6021V10.6229C108.183 10.5188 108.097 10.4355 108.011 10.4355H104.634C104.526 10.4355 104.462 10.5188 104.462 10.6229V16.7652C104.462 18.3789 104.655 19.2881 105.788 20.4055H105.81C105.874 20.4888 105.96 20.572 106.046 20.6345C106.068 20.6553 107.265 21.5437 108.824 21.5437C109.53 21.5437 110.319 21.3563 111.111 20.8392C111.154 20.7976 111.24 20.8392 111.24 20.9017V21.2106C111.24 21.2938 111.326 21.3771 111.434 21.3771H114.574C114.681 21.3771 114.767 21.2938 114.767 21.2106V10.6229C114.767 10.5188 114.681 10.4355 114.574 10.4355H114.577Z" fill="white"/>
<path d="M122.091 15.0265C122.162 15.0542 122.234 15.0785 122.306 15.1098C123.033 15.4394 124.7 16.3937 124.593 18.108C124.571 18.5002 124.464 18.9131 124.291 19.3295C123.607 20.7142 122.048 21.5435 120.105 21.5435C119.847 21.5435 119.571 21.5435 119.291 21.5019C118.417 21.3978 117.646 21.1722 117.026 20.8391C116.363 20.4053 115.872 19.805 115.531 19.0589C115.488 18.9548 115.553 18.8298 115.66 18.809L118.757 18.167C118.822 18.1462 118.908 18.1878 118.951 18.2503C119.166 18.5592 119.528 18.7049 119.739 18.7257C120.209 18.7882 120.445 18.6633 120.574 18.5383C120.703 18.4342 120.746 18.2711 120.725 18.1046C120.682 17.7332 120.449 17.5459 119.252 17.008L119.23 16.9872C119.105 16.9316 118.961 16.8657 118.804 16.7928C118.667 16.7304 118.524 16.661 118.374 16.595C118.141 16.4909 117.925 16.3868 117.71 16.2862L117.689 16.2653C117.667 16.2653 117.624 16.2445 117.603 16.2237C116.535 15.6234 115.893 14.8981 115.743 14.0722C115.51 12.8715 116.298 11.8582 116.47 11.6743C116.707 11.407 116.983 11.178 117.302 10.9906C118.219 10.4111 119.438 10.1647 120.7 10.307C121.471 10.3903 122.152 10.595 122.729 10.8865C123.026 11.0323 123.284 11.2162 123.517 11.4036C123.689 11.5493 124.18 12.0247 124.352 12.7674C124.374 12.8507 124.309 12.9548 124.202 12.9756L121.148 13.5759C121.062 13.5759 120.997 13.5343 120.954 13.451C120.868 13.2428 120.675 13.038 120.27 12.9964C120.012 12.9756 119.779 13.038 119.607 13.2046C119.499 13.3295 119.456 13.4926 119.478 13.6176C119.542 13.8258 119.754 14.1346 120.886 14.5684C121.04 14.6239 121.18 14.6795 121.316 14.7315L121.374 14.7558L121.442 14.7836C121.471 14.794 121.496 14.8044 121.524 14.8148C121.557 14.8287 121.589 14.8426 121.625 14.853C121.646 14.8634 121.671 14.8703 121.693 14.8773C121.764 14.905 121.836 14.9293 121.911 14.9571C121.969 14.9779 122.026 14.9987 122.083 15.0195L122.091 15.0265Z" fill="white"/>
<path fill-rule="evenodd" clip-rule="evenodd" d="M136.902 14.3883C136.773 13.9753 136.601 13.5832 136.389 13.1876L136.282 13.021C136.257 12.9967 136.242 12.9759 136.228 12.9482C136.228 12.9412 136.221 12.9377 136.221 12.9308C136.221 12.9239 136.214 12.9169 136.214 12.9135V12.903C136.214 12.903 136.203 12.8857 136.199 12.8787L136.135 12.7955C136.113 12.7746 136.099 12.7504 136.081 12.7226L136.07 12.7087C136.056 12.6879 136.042 12.6671 136.027 12.6497C136.013 12.6324 135.999 12.6115 135.984 12.5942L135.952 12.5595C135.952 12.5595 135.927 12.5283 135.913 12.5144C135.898 12.497 135.887 12.4831 135.877 12.4658L135.855 12.4242L135.683 12.2576L135.619 12.32L135.683 12.2368L135.468 12.0285L135.447 11.9869C135.382 11.9453 135.339 11.9036 135.296 11.862L135.275 11.8412L135.102 11.6746L135.038 11.6329C134.995 11.6017 134.959 11.5705 134.92 11.5392C134.884 11.508 134.844 11.4768 134.801 11.4456C134.78 11.4456 134.758 11.4247 134.737 11.4039H134.715C134.629 11.3206 134.522 11.2582 134.418 11.1957C134.386 11.1783 134.353 11.1541 134.314 11.1332C134.224 11.0777 134.127 11.0187 134.052 10.991C134.041 10.9805 134.027 10.9736 134.013 10.9632C133.995 10.9528 133.977 10.9389 133.966 10.9285L133.923 11.0118L133.945 10.9285C133.945 10.9285 133.923 10.9181 133.912 10.9146C133.873 10.8973 133.83 10.8799 133.798 10.8452H133.776C133.705 10.8174 133.629 10.7793 133.565 10.7446C133.532 10.7272 133.504 10.7133 133.479 10.6995H133.436C133.436 10.6995 133.414 10.6925 133.407 10.689C133.396 10.6856 133.386 10.6821 133.378 10.6786H133.364C133.332 10.6613 133.296 10.6509 133.246 10.637C133.239 10.63 133.231 10.6266 133.224 10.6196H133.213C133.213 10.6196 133.192 10.6058 133.181 10.5953C133.149 10.5849 133.113 10.5745 133.074 10.5641C133.052 10.5572 133.027 10.5502 133.006 10.5433C132.991 10.5398 132.98 10.5364 132.966 10.5329H132.945C132.92 10.5259 132.891 10.519 132.866 10.5086L132.837 10.4982L132.819 10.4912L132.787 10.4808C132.787 10.4808 132.762 10.4739 132.751 10.4669C132.733 10.46 132.712 10.4565 132.694 10.4496L132.629 10.4288C132.457 10.3871 132.289 10.3663 132.117 10.3455L132.031 10.3247C131.859 10.3038 131.69 10.283 131.497 10.283L131.432 10.2622H130.876C130.855 10.2622 130.833 10.2622 130.812 10.283H130.579C130.557 10.283 130.536 10.3038 130.514 10.3038C130.453 10.3038 130.4 10.3108 130.353 10.3177H130.317L130.296 10.3247C130.296 10.3247 130.267 10.3247 130.256 10.3247H130.235C130.206 10.3316 130.167 10.3386 130.131 10.3455L130.088 10.3524C130.034 10.3628 129.98 10.3733 129.937 10.3837H129.894C129.83 10.4045 129.765 10.4045 129.701 10.4253H129.679C129.679 10.4253 129.665 10.4392 129.661 10.4427C129.661 10.4427 129.658 10.4427 129.654 10.4427H129.636L129.378 10.5051C129.292 10.5468 129.206 10.5676 129.12 10.5884C129.109 10.5988 129.102 10.6023 129.091 10.6058C129.081 10.6058 129.066 10.6058 129.055 10.6058V10.6266L128.862 10.689H128.84C128.84 10.689 128.826 10.7029 128.822 10.7064C128.822 10.7064 128.815 10.7064 128.815 10.7099C128.812 10.7099 128.808 10.7099 128.797 10.7099C128.711 10.7515 128.625 10.7931 128.543 10.814C128.529 10.8244 128.514 10.8313 128.5 10.8417C128.493 10.8452 128.482 10.8521 128.475 10.8556L128.439 10.8764L128.4 10.8973C128.4 10.8973 128.374 10.9111 128.364 10.9181C128.353 10.925 128.342 10.932 128.335 10.9354C128.324 10.9354 128.313 10.9389 128.303 10.9458C128.296 10.9458 128.292 10.9528 128.285 10.9528C128.281 10.9528 128.274 10.9528 128.27 10.9528L128.249 10.9736C128.249 10.9736 128.227 10.984 128.213 10.9875C128.213 10.9875 128.192 10.9979 128.181 11.0048L128.163 11.0118L128.152 11.0187H128.145V11.0257L128.127 11.0361C128.127 11.0361 128.109 11.0499 128.102 11.0569L128.016 11.0985C127.951 11.1402 127.887 11.1818 127.801 11.2235C127.095 11.6989 126.475 12.2992 126.027 13.0037C126.005 13.0453 125.984 13.08 125.962 13.1182C125.941 13.1529 125.919 13.1911 125.898 13.2327L125.855 13.316C125.855 13.316 125.84 13.3368 125.833 13.3472C125.829 13.3576 125.822 13.368 125.812 13.3785C125.812 13.3993 125.79 13.4201 125.79 13.4201L125.769 13.4617C125.747 13.4826 125.747 13.5034 125.747 13.5242C125.733 13.5554 125.715 13.5832 125.7 13.611C125.69 13.6318 125.679 13.6526 125.668 13.6734C125.665 13.6838 125.657 13.6942 125.654 13.7081C125.647 13.722 125.643 13.7359 125.639 13.7532C125.575 13.899 125.51 14.0239 125.467 14.187C125.295 14.6833 125.191 15.1795 125.17 15.6966V16.2761C125.191 16.5641 125.213 16.8556 125.277 17.1436C125.299 17.2269 125.32 17.331 125.342 17.4108C125.385 17.515 125.406 17.6399 125.471 17.7613C125.557 18.0112 125.643 18.2576 125.769 18.4866C125.769 18.497 125.769 18.5005 125.769 18.504C125.769 18.5109 125.776 18.5144 125.786 18.5283L125.808 18.5699C125.822 18.6115 125.847 18.6567 125.869 18.6914C125.869 18.6914 125.887 18.7226 125.894 18.733L125.915 18.7746C125.959 18.8371 125.98 18.8787 126.023 18.9412C126.471 19.6457 127.091 20.2634 127.797 20.7214C127.883 20.7839 127.948 20.8255 128.012 20.8672L128.098 20.9088C128.12 20.9192 128.145 20.9331 128.174 20.9505C128.199 20.9678 128.227 20.9817 128.249 20.9921H128.27C128.27 20.9921 128.292 21.006 128.303 21.0129C128.313 21.0164 128.324 21.0233 128.335 21.0338C128.4 21.0754 128.486 21.117 128.55 21.1379H128.572C128.636 21.1795 128.722 21.2211 128.808 21.242C128.819 21.2524 128.826 21.2593 128.833 21.2628C128.833 21.2628 128.84 21.2628 128.844 21.2628H128.851L128.873 21.2836L129.066 21.3461C129.088 21.3669 129.109 21.3669 129.131 21.3669C129.217 21.4085 129.303 21.4294 129.389 21.4502C129.407 21.4571 129.428 21.4641 129.453 21.471C129.507 21.4883 129.572 21.5057 129.647 21.5335H129.711C129.776 21.5543 129.84 21.5751 129.905 21.5751L129.991 21.5959C130.056 21.6167 130.142 21.6376 130.206 21.6376H130.271C130.335 21.6584 130.421 21.6792 130.529 21.6792H130.615C130.679 21.7 130.744 21.7 130.808 21.7H130.894C131.002 21.7209 131.088 21.7209 131.174 21.7209C131.26 21.7209 131.346 21.7209 131.45 21.7H131.514C131.708 21.7 131.876 21.6792 132.07 21.6584L132.135 21.6376C132.307 21.6167 132.475 21.5751 132.647 21.5335L132.712 21.5126L132.966 21.4502H132.988C133.02 21.4398 133.056 21.4259 133.095 21.4085C133.135 21.3912 133.17 21.3773 133.203 21.3669L133.289 21.3461C133.289 21.3461 133.307 21.3391 133.317 21.3357L133.339 21.3287H133.35L133.36 21.3218L133.378 21.3148L133.396 21.3079C133.396 21.3079 133.429 21.2975 133.446 21.294C133.457 21.294 133.468 21.2871 133.482 21.2836V21.2628L133.801 21.1379L133.823 21.117C133.823 21.117 133.848 21.1066 133.862 21.0997L133.898 21.0858C133.923 21.0754 133.952 21.065 133.973 21.0546L133.995 21.0338C134.016 21.0338 134.059 21.0129 134.081 20.9921L134.102 20.9713C134.102 20.9713 134.131 20.9574 134.145 20.9505C134.167 20.9401 134.185 20.9296 134.206 20.9192C134.239 20.9019 134.267 20.888 134.296 20.8707C134.346 20.8429 134.396 20.8151 134.447 20.7839L134.468 20.7631C134.576 20.7006 134.662 20.6381 134.766 20.5757L134.83 20.5132C134.916 20.4716 134.981 20.4091 135.067 20.3258L135.024 20.2634L135.088 20.3258L135.153 20.2634C135.196 20.2217 135.26 20.1801 135.303 20.1384L135.518 19.9302C135.583 19.8678 135.647 19.8053 135.712 19.722L135.755 19.6804C135.798 19.6387 135.841 19.5971 135.884 19.5346L135.905 19.493C135.905 19.493 135.93 19.4687 135.941 19.4548C135.948 19.4444 135.959 19.4305 135.97 19.4097L136.013 19.368C136.077 19.2848 136.142 19.2015 136.228 19.1008C136.253 19.0453 136.275 19.0002 136.303 18.9586C136.31 18.9482 136.318 18.9377 136.321 18.9308C136.339 18.9065 136.357 18.8822 136.379 18.8545L136.422 18.7712C136.465 18.6879 136.551 18.5213 136.615 18.379C136.68 18.2749 136.615 18.15 136.486 18.1292L133.475 17.6121C133.45 17.6052 133.425 17.6052 133.403 17.6121C133.386 17.6121 133.371 17.6191 133.357 17.626C133.339 17.6329 133.325 17.6434 133.31 17.6538C133.303 17.6607 133.292 17.6676 133.285 17.6746C132.751 18.3582 131.98 18.6879 131.17 18.6879C130.21 18.6879 129.331 18.1916 128.84 17.4039C128.776 17.279 128.862 17.1367 129.012 17.1367H136.916C137.002 17.1367 137.088 17.0742 137.088 16.991C137.153 16.6613 137.196 16.2865 137.196 15.9776C137.196 15.4189 137.11 14.8811 136.941 14.364L136.902 14.3883ZM133.439 14.7596H129.145C129.038 14.7596 128.952 14.6555 128.973 14.5514C129.124 13.7463 130.17 13.1043 131.303 13.1043C132.522 13.1043 133.482 13.7463 133.611 14.5514C133.633 14.6555 133.547 14.7596 133.439 14.7596Z" fill="white"/>
<path d="M138.623 19.3088C138.368 19.5171 138.239 19.8745 138.239 20.3846C138.239 20.8947 138.368 21.2383 138.623 21.4604C138.877 21.6825 139.186 21.7901 139.54 21.7901C139.895 21.7901 140.225 21.679 140.48 21.4604C140.752 21.2383 140.885 20.8809 140.885 20.3846C140.885 19.8884 140.748 19.5171 140.48 19.3088C140.225 19.1006 139.91 19 139.54 19C139.171 19 138.877 19.1041 138.623 19.3088Z" fill="white"/>
<path fill-rule="evenodd" clip-rule="evenodd" d="M147.014 16.0018C147.014 12.837 149.684 10.2725 152.996 10.2725C156.308 10.2725 159 12.837 159 16.0018C159 19.1666 156.308 21.7311 152.996 21.7311C149.684 21.7311 147.014 19.1458 147.014 16.0018ZM150.39 16.0018C150.39 17.3656 151.566 18.5038 152.996 18.5038C154.426 18.5038 155.624 17.3656 155.624 16.0018C155.624 14.638 154.448 13.4998 152.996 13.4998C151.544 13.4998 150.39 14.6172 150.39 16.0018Z" fill="white"/>
<defs>
<linearGradient id="paint0_linear_4350_1490" x1="0" y1="16" x2="28" y2="16" gradientUnits="userSpaceOnUse">
<stop stop-color="#4E55FF"/>
<stop offset="0.51" stop-color="#FF3773"/>
<stop offset="0.98" stop-color="#FF5C00"/>
</linearGradient>
</defs>
</svg>
